G75*
%MOIN*%
%OFA0B0*%
%FSLAX25Y25*%
%IPPOS*%
%LPD*%
%AMOC8*
5,1,8,0,0,1.08239X$1,22.5*
%
%ADD10C,0.00000*%
%ADD11C,0.00600*%
%ADD12C,0.01000*%
%ADD13R,0.10000X0.02000*%
%ADD14C,0.00500*%
%ADD15R,0.02000X0.01500*%
%ADD16R,0.01500X0.02000*%
%ADD17C,0.00800*%
%ADD18C,0.00700*%
D10*
X0001800Y0003333D02*
X0001800Y0200184D01*
X0198650Y0200184D01*
X0198650Y0003333D01*
X0001800Y0003333D01*
D11*
X0037800Y0049333D02*
X0039300Y0049333D01*
X0039800Y0049833D01*
X0053800Y0049833D01*
X0054300Y0049333D01*
X0055800Y0049333D01*
X0055860Y0049335D01*
X0055921Y0049340D01*
X0055980Y0049349D01*
X0056039Y0049362D01*
X0056098Y0049378D01*
X0056155Y0049398D01*
X0056210Y0049421D01*
X0056265Y0049448D01*
X0056317Y0049477D01*
X0056368Y0049510D01*
X0056417Y0049546D01*
X0056463Y0049584D01*
X0056507Y0049626D01*
X0056549Y0049670D01*
X0056587Y0049716D01*
X0056623Y0049765D01*
X0056656Y0049816D01*
X0056685Y0049868D01*
X0056712Y0049923D01*
X0056735Y0049978D01*
X0056755Y0050035D01*
X0056771Y0050094D01*
X0056784Y0050153D01*
X0056793Y0050212D01*
X0056798Y0050273D01*
X0056800Y0050333D01*
X0056800Y0056333D01*
X0056798Y0056393D01*
X0056793Y0056454D01*
X0056784Y0056513D01*
X0056771Y0056572D01*
X0056755Y0056631D01*
X0056735Y0056688D01*
X0056712Y0056743D01*
X0056685Y0056798D01*
X0056656Y0056850D01*
X0056623Y0056901D01*
X0056587Y0056950D01*
X0056549Y0056996D01*
X0056507Y0057040D01*
X0056463Y0057082D01*
X0056417Y0057120D01*
X0056368Y0057156D01*
X0056317Y0057189D01*
X0056265Y0057218D01*
X0056210Y0057245D01*
X0056155Y0057268D01*
X0056098Y0057288D01*
X0056039Y0057304D01*
X0055980Y0057317D01*
X0055921Y0057326D01*
X0055860Y0057331D01*
X0055800Y0057333D01*
X0054300Y0057333D01*
X0053800Y0056833D01*
X0039800Y0056833D01*
X0039300Y0057333D01*
X0037800Y0057333D01*
X0037740Y0057331D01*
X0037679Y0057326D01*
X0037620Y0057317D01*
X0037561Y0057304D01*
X0037502Y0057288D01*
X0037445Y0057268D01*
X0037390Y0057245D01*
X0037335Y0057218D01*
X0037283Y0057189D01*
X0037232Y0057156D01*
X0037183Y0057120D01*
X0037137Y0057082D01*
X0037093Y0057040D01*
X0037051Y0056996D01*
X0037013Y0056950D01*
X0036977Y0056901D01*
X0036944Y0056850D01*
X0036915Y0056798D01*
X0036888Y0056743D01*
X0036865Y0056688D01*
X0036845Y0056631D01*
X0036829Y0056572D01*
X0036816Y0056513D01*
X0036807Y0056454D01*
X0036802Y0056393D01*
X0036800Y0056333D01*
X0036800Y0050333D01*
X0036802Y0050273D01*
X0036807Y0050212D01*
X0036816Y0050153D01*
X0036829Y0050094D01*
X0036845Y0050035D01*
X0036865Y0049978D01*
X0036888Y0049923D01*
X0036915Y0049868D01*
X0036944Y0049816D01*
X0036977Y0049765D01*
X0037013Y0049716D01*
X0037051Y0049670D01*
X0037093Y0049626D01*
X0037137Y0049584D01*
X0037183Y0049546D01*
X0037232Y0049510D01*
X0037283Y0049477D01*
X0037335Y0049448D01*
X0037390Y0049421D01*
X0037445Y0049398D01*
X0037502Y0049378D01*
X0037561Y0049362D01*
X0037620Y0049349D01*
X0037679Y0049340D01*
X0037740Y0049335D01*
X0037800Y0049333D01*
X0048800Y0073333D02*
X0054800Y0073333D01*
X0054860Y0073335D01*
X0054921Y0073340D01*
X0054980Y0073349D01*
X0055039Y0073362D01*
X0055098Y0073378D01*
X0055155Y0073398D01*
X0055210Y0073421D01*
X0055265Y0073448D01*
X0055317Y0073477D01*
X0055368Y0073510D01*
X0055417Y0073546D01*
X0055463Y0073584D01*
X0055507Y0073626D01*
X0055549Y0073670D01*
X0055587Y0073716D01*
X0055623Y0073765D01*
X0055656Y0073816D01*
X0055685Y0073868D01*
X0055712Y0073923D01*
X0055735Y0073978D01*
X0055755Y0074035D01*
X0055771Y0074094D01*
X0055784Y0074153D01*
X0055793Y0074212D01*
X0055798Y0074273D01*
X0055800Y0074333D01*
X0055800Y0075833D01*
X0055300Y0076333D01*
X0055300Y0090333D01*
X0055800Y0090833D01*
X0055800Y0092333D01*
X0055798Y0092393D01*
X0055793Y0092454D01*
X0055784Y0092513D01*
X0055771Y0092572D01*
X0055755Y0092631D01*
X0055735Y0092688D01*
X0055712Y0092743D01*
X0055685Y0092798D01*
X0055656Y0092850D01*
X0055623Y0092901D01*
X0055587Y0092950D01*
X0055549Y0092996D01*
X0055507Y0093040D01*
X0055463Y0093082D01*
X0055417Y0093120D01*
X0055368Y0093156D01*
X0055317Y0093189D01*
X0055265Y0093218D01*
X0055210Y0093245D01*
X0055155Y0093268D01*
X0055098Y0093288D01*
X0055039Y0093304D01*
X0054980Y0093317D01*
X0054921Y0093326D01*
X0054860Y0093331D01*
X0054800Y0093333D01*
X0048800Y0093333D01*
X0048740Y0093331D01*
X0048679Y0093326D01*
X0048620Y0093317D01*
X0048561Y0093304D01*
X0048502Y0093288D01*
X0048445Y0093268D01*
X0048390Y0093245D01*
X0048335Y0093218D01*
X0048283Y0093189D01*
X0048232Y0093156D01*
X0048183Y0093120D01*
X0048137Y0093082D01*
X0048093Y0093040D01*
X0048051Y0092996D01*
X0048013Y0092950D01*
X0047977Y0092901D01*
X0047944Y0092850D01*
X0047915Y0092798D01*
X0047888Y0092743D01*
X0047865Y0092688D01*
X0047845Y0092631D01*
X0047829Y0092572D01*
X0047816Y0092513D01*
X0047807Y0092454D01*
X0047802Y0092393D01*
X0047800Y0092333D01*
X0047800Y0090833D01*
X0048300Y0090333D01*
X0048300Y0076333D01*
X0047800Y0075833D01*
X0047800Y0074333D01*
X0047802Y0074273D01*
X0047807Y0074212D01*
X0047816Y0074153D01*
X0047829Y0074094D01*
X0047845Y0074035D01*
X0047865Y0073978D01*
X0047888Y0073923D01*
X0047915Y0073868D01*
X0047944Y0073816D01*
X0047977Y0073765D01*
X0048013Y0073716D01*
X0048051Y0073670D01*
X0048093Y0073626D01*
X0048137Y0073584D01*
X0048183Y0073546D01*
X0048232Y0073510D01*
X0048283Y0073477D01*
X0048335Y0073448D01*
X0048390Y0073421D01*
X0048445Y0073398D01*
X0048502Y0073378D01*
X0048561Y0073362D01*
X0048620Y0073349D01*
X0048679Y0073340D01*
X0048740Y0073335D01*
X0048800Y0073333D01*
X0066800Y0039333D02*
X0066952Y0039331D01*
X0067103Y0039325D01*
X0067254Y0039316D01*
X0067406Y0039302D01*
X0067556Y0039285D01*
X0067706Y0039264D01*
X0067856Y0039239D01*
X0068005Y0039211D01*
X0068153Y0039178D01*
X0068300Y0039142D01*
X0068447Y0039103D01*
X0068592Y0039059D01*
X0068736Y0039012D01*
X0068879Y0038961D01*
X0069020Y0038907D01*
X0069161Y0038849D01*
X0069299Y0038788D01*
X0069436Y0038723D01*
X0069572Y0038654D01*
X0069705Y0038583D01*
X0069837Y0038508D01*
X0069967Y0038429D01*
X0070094Y0038348D01*
X0070220Y0038263D01*
X0070344Y0038175D01*
X0070465Y0038084D01*
X0070584Y0037990D01*
X0070700Y0037892D01*
X0070814Y0037792D01*
X0070926Y0037690D01*
X0071034Y0037584D01*
X0071140Y0037476D01*
X0071244Y0037365D01*
X0071344Y0037251D01*
X0071442Y0037135D01*
X0071536Y0037016D01*
X0066800Y0027333D02*
X0066646Y0027335D01*
X0066492Y0027341D01*
X0066338Y0027351D01*
X0066184Y0027365D01*
X0066031Y0027382D01*
X0065879Y0027404D01*
X0065727Y0027430D01*
X0065575Y0027459D01*
X0065425Y0027493D01*
X0065275Y0027530D01*
X0065127Y0027571D01*
X0064979Y0027616D01*
X0064833Y0027665D01*
X0064688Y0027717D01*
X0064545Y0027773D01*
X0064402Y0027833D01*
X0064262Y0027896D01*
X0064123Y0027963D01*
X0063986Y0028034D01*
X0063851Y0028108D01*
X0063718Y0028185D01*
X0063586Y0028266D01*
X0063457Y0028350D01*
X0063330Y0028438D01*
X0063206Y0028529D01*
X0063084Y0028622D01*
X0062964Y0028720D01*
X0062847Y0028820D01*
X0062732Y0028923D01*
X0062620Y0029029D01*
X0062511Y0029137D01*
X0062405Y0029249D01*
X0062301Y0029363D01*
X0062201Y0029480D01*
X0062103Y0029599D01*
X0062009Y0029721D01*
X0061918Y0029846D01*
X0066800Y0027333D02*
X0066950Y0027335D01*
X0067101Y0027341D01*
X0067251Y0027350D01*
X0067400Y0027363D01*
X0067550Y0027380D01*
X0067699Y0027401D01*
X0067847Y0027425D01*
X0067995Y0027453D01*
X0068142Y0027485D01*
X0068288Y0027520D01*
X0068433Y0027560D01*
X0068577Y0027602D01*
X0068720Y0027649D01*
X0068862Y0027699D01*
X0069003Y0027752D01*
X0069142Y0027809D01*
X0069280Y0027869D01*
X0069416Y0027933D01*
X0069550Y0028000D01*
X0069683Y0028071D01*
X0069814Y0028145D01*
X0069943Y0028222D01*
X0070070Y0028303D01*
X0070195Y0028386D01*
X0070318Y0028473D01*
X0070439Y0028562D01*
X0070557Y0028655D01*
X0070673Y0028751D01*
X0070787Y0028849D01*
X0070898Y0028950D01*
X0071007Y0029055D01*
X0071112Y0029161D01*
X0071216Y0029271D01*
X0071316Y0029383D01*
X0071414Y0029497D01*
X0071508Y0029614D01*
X0071600Y0029733D01*
X0066800Y0039333D02*
X0066648Y0039331D01*
X0066497Y0039325D01*
X0066346Y0039316D01*
X0066194Y0039302D01*
X0066044Y0039285D01*
X0065894Y0039264D01*
X0065744Y0039239D01*
X0065595Y0039211D01*
X0065447Y0039178D01*
X0065300Y0039142D01*
X0065153Y0039103D01*
X0065008Y0039059D01*
X0064864Y0039012D01*
X0064721Y0038961D01*
X0064580Y0038907D01*
X0064439Y0038849D01*
X0064301Y0038788D01*
X0064164Y0038723D01*
X0064028Y0038654D01*
X0063895Y0038583D01*
X0063763Y0038508D01*
X0063633Y0038429D01*
X0063506Y0038348D01*
X0063380Y0038263D01*
X0063256Y0038175D01*
X0063135Y0038084D01*
X0063016Y0037990D01*
X0062900Y0037892D01*
X0062786Y0037792D01*
X0062674Y0037690D01*
X0062566Y0037584D01*
X0062460Y0037476D01*
X0062356Y0037365D01*
X0062256Y0037251D01*
X0062158Y0037135D01*
X0062064Y0037016D01*
X0096800Y0013333D02*
X0096800Y0152833D01*
X0096800Y0153333D02*
X0101800Y0153333D01*
X0101802Y0153193D01*
X0101808Y0153053D01*
X0101818Y0152913D01*
X0101831Y0152773D01*
X0101849Y0152634D01*
X0101871Y0152495D01*
X0101896Y0152358D01*
X0101925Y0152220D01*
X0101958Y0152084D01*
X0101995Y0151949D01*
X0102036Y0151815D01*
X0102081Y0151682D01*
X0102129Y0151550D01*
X0102181Y0151420D01*
X0102236Y0151291D01*
X0102295Y0151164D01*
X0102358Y0151038D01*
X0102424Y0150914D01*
X0102493Y0150793D01*
X0102566Y0150673D01*
X0102643Y0150555D01*
X0102722Y0150440D01*
X0102805Y0150326D01*
X0102891Y0150216D01*
X0102980Y0150107D01*
X0103072Y0150001D01*
X0103167Y0149898D01*
X0103264Y0149797D01*
X0103365Y0149700D01*
X0103468Y0149605D01*
X0103574Y0149513D01*
X0103683Y0149424D01*
X0103793Y0149338D01*
X0103907Y0149255D01*
X0104022Y0149176D01*
X0104140Y0149099D01*
X0104260Y0149026D01*
X0104381Y0148957D01*
X0104505Y0148891D01*
X0104631Y0148828D01*
X0104758Y0148769D01*
X0104887Y0148714D01*
X0105017Y0148662D01*
X0105149Y0148614D01*
X0105282Y0148569D01*
X0105416Y0148528D01*
X0105551Y0148491D01*
X0105687Y0148458D01*
X0105825Y0148429D01*
X0105962Y0148404D01*
X0106101Y0148382D01*
X0106240Y0148364D01*
X0106380Y0148351D01*
X0106520Y0148341D01*
X0106660Y0148335D01*
X0106800Y0148333D01*
X0106940Y0148335D01*
X0107080Y0148341D01*
X0107220Y0148351D01*
X0107360Y0148364D01*
X0107499Y0148382D01*
X0107638Y0148404D01*
X0107775Y0148429D01*
X0107913Y0148458D01*
X0108049Y0148491D01*
X0108184Y0148528D01*
X0108318Y0148569D01*
X0108451Y0148614D01*
X0108583Y0148662D01*
X0108713Y0148714D01*
X0108842Y0148769D01*
X0108969Y0148828D01*
X0109095Y0148891D01*
X0109219Y0148957D01*
X0109340Y0149026D01*
X0109460Y0149099D01*
X0109578Y0149176D01*
X0109693Y0149255D01*
X0109807Y0149338D01*
X0109917Y0149424D01*
X0110026Y0149513D01*
X0110132Y0149605D01*
X0110235Y0149700D01*
X0110336Y0149797D01*
X0110433Y0149898D01*
X0110528Y0150001D01*
X0110620Y0150107D01*
X0110709Y0150216D01*
X0110795Y0150326D01*
X0110878Y0150440D01*
X0110957Y0150555D01*
X0111034Y0150673D01*
X0111107Y0150793D01*
X0111176Y0150914D01*
X0111242Y0151038D01*
X0111305Y0151164D01*
X0111364Y0151291D01*
X0111419Y0151420D01*
X0111471Y0151550D01*
X0111519Y0151682D01*
X0111564Y0151815D01*
X0111605Y0151949D01*
X0111642Y0152084D01*
X0111675Y0152220D01*
X0111704Y0152358D01*
X0111729Y0152495D01*
X0111751Y0152634D01*
X0111769Y0152773D01*
X0111782Y0152913D01*
X0111792Y0153053D01*
X0111798Y0153193D01*
X0111800Y0153333D01*
X0116800Y0153333D01*
X0116800Y0013333D01*
X0096800Y0013333D01*
X0135300Y0063833D02*
X0148300Y0063833D01*
X0151300Y0066833D01*
X0151300Y0091333D01*
X0151298Y0091409D01*
X0151292Y0091485D01*
X0151283Y0091560D01*
X0151269Y0091635D01*
X0151252Y0091709D01*
X0151231Y0091782D01*
X0151207Y0091854D01*
X0151178Y0091925D01*
X0151147Y0091994D01*
X0151112Y0092061D01*
X0151073Y0092126D01*
X0151031Y0092190D01*
X0150986Y0092251D01*
X0150938Y0092310D01*
X0150887Y0092366D01*
X0150833Y0092420D01*
X0150777Y0092471D01*
X0150718Y0092519D01*
X0150657Y0092564D01*
X0150593Y0092606D01*
X0150528Y0092645D01*
X0150461Y0092680D01*
X0150392Y0092711D01*
X0150321Y0092740D01*
X0150249Y0092764D01*
X0150176Y0092785D01*
X0150102Y0092802D01*
X0150027Y0092816D01*
X0149952Y0092825D01*
X0149876Y0092831D01*
X0149800Y0092833D01*
X0133800Y0092833D01*
X0133724Y0092831D01*
X0133648Y0092825D01*
X0133573Y0092816D01*
X0133498Y0092802D01*
X0133424Y0092785D01*
X0133351Y0092764D01*
X0133279Y0092740D01*
X0133208Y0092711D01*
X0133139Y0092680D01*
X0133072Y0092645D01*
X0133007Y0092606D01*
X0132943Y0092564D01*
X0132882Y0092519D01*
X0132823Y0092471D01*
X0132767Y0092420D01*
X0132713Y0092366D01*
X0132662Y0092310D01*
X0132614Y0092251D01*
X0132569Y0092190D01*
X0132527Y0092126D01*
X0132488Y0092061D01*
X0132453Y0091994D01*
X0132422Y0091925D01*
X0132393Y0091854D01*
X0132369Y0091782D01*
X0132348Y0091709D01*
X0132331Y0091635D01*
X0132317Y0091560D01*
X0132308Y0091485D01*
X0132302Y0091409D01*
X0132300Y0091333D01*
X0132300Y0066833D01*
X0135300Y0063833D01*
X0136400Y0070033D02*
X0136400Y0072633D01*
X0135200Y0071333D02*
X0137700Y0071333D01*
X0141800Y0072333D02*
X0141800Y0075833D01*
X0137000Y0075833D01*
X0137000Y0077833D01*
X0146600Y0077833D01*
X0146600Y0075833D01*
X0141800Y0075833D01*
X0141800Y0080833D02*
X0141800Y0084333D01*
X0150300Y0133333D02*
X0133300Y0133333D01*
X0133240Y0133335D01*
X0133179Y0133340D01*
X0133120Y0133349D01*
X0133061Y0133362D01*
X0133002Y0133378D01*
X0132945Y0133398D01*
X0132890Y0133421D01*
X0132835Y0133448D01*
X0132783Y0133477D01*
X0132732Y0133510D01*
X0132683Y0133546D01*
X0132637Y0133584D01*
X0132593Y0133626D01*
X0132551Y0133670D01*
X0132513Y0133716D01*
X0132477Y0133765D01*
X0132444Y0133816D01*
X0132415Y0133868D01*
X0132388Y0133923D01*
X0132365Y0133978D01*
X0132345Y0134035D01*
X0132329Y0134094D01*
X0132316Y0134153D01*
X0132307Y0134212D01*
X0132302Y0134273D01*
X0132300Y0134333D01*
X0132300Y0142333D01*
X0132302Y0142393D01*
X0132307Y0142454D01*
X0132316Y0142513D01*
X0132329Y0142572D01*
X0132345Y0142631D01*
X0132365Y0142688D01*
X0132388Y0142743D01*
X0132415Y0142798D01*
X0132444Y0142850D01*
X0132477Y0142901D01*
X0132513Y0142950D01*
X0132551Y0142996D01*
X0132593Y0143040D01*
X0132637Y0143082D01*
X0132683Y0143120D01*
X0132732Y0143156D01*
X0132783Y0143189D01*
X0132835Y0143218D01*
X0132890Y0143245D01*
X0132945Y0143268D01*
X0133002Y0143288D01*
X0133061Y0143304D01*
X0133120Y0143317D01*
X0133179Y0143326D01*
X0133240Y0143331D01*
X0133300Y0143333D01*
X0150300Y0143333D01*
X0150360Y0143331D01*
X0150421Y0143326D01*
X0150480Y0143317D01*
X0150539Y0143304D01*
X0150598Y0143288D01*
X0150655Y0143268D01*
X0150710Y0143245D01*
X0150765Y0143218D01*
X0150817Y0143189D01*
X0150868Y0143156D01*
X0150917Y0143120D01*
X0150963Y0143082D01*
X0151007Y0143040D01*
X0151049Y0142996D01*
X0151087Y0142950D01*
X0151123Y0142901D01*
X0151156Y0142850D01*
X0151185Y0142798D01*
X0151212Y0142743D01*
X0151235Y0142688D01*
X0151255Y0142631D01*
X0151271Y0142572D01*
X0151284Y0142513D01*
X0151293Y0142454D01*
X0151298Y0142393D01*
X0151300Y0142333D01*
X0151300Y0134333D01*
X0151298Y0134273D01*
X0151293Y0134212D01*
X0151284Y0134153D01*
X0151271Y0134094D01*
X0151255Y0134035D01*
X0151235Y0133978D01*
X0151212Y0133923D01*
X0151185Y0133868D01*
X0151156Y0133816D01*
X0151123Y0133765D01*
X0151087Y0133716D01*
X0151049Y0133670D01*
X0151007Y0133626D01*
X0150963Y0133584D01*
X0150917Y0133546D01*
X0150868Y0133510D01*
X0150817Y0133477D01*
X0150765Y0133448D01*
X0150710Y0133421D01*
X0150655Y0133398D01*
X0150598Y0133378D01*
X0150539Y0133362D01*
X0150480Y0133349D01*
X0150421Y0133340D01*
X0150360Y0133335D01*
X0150300Y0133333D01*
X0143300Y0138333D02*
X0142800Y0138333D01*
X0140800Y0138333D02*
X0140300Y0138333D01*
X0152300Y0150333D02*
X0152300Y0174833D01*
X0155300Y0177833D01*
X0168300Y0177833D01*
X0171300Y0174833D01*
X0171300Y0150333D01*
X0171298Y0150257D01*
X0171292Y0150181D01*
X0171283Y0150106D01*
X0171269Y0150031D01*
X0171252Y0149957D01*
X0171231Y0149884D01*
X0171207Y0149812D01*
X0171178Y0149741D01*
X0171147Y0149672D01*
X0171112Y0149605D01*
X0171073Y0149540D01*
X0171031Y0149476D01*
X0170986Y0149415D01*
X0170938Y0149356D01*
X0170887Y0149300D01*
X0170833Y0149246D01*
X0170777Y0149195D01*
X0170718Y0149147D01*
X0170657Y0149102D01*
X0170593Y0149060D01*
X0170528Y0149021D01*
X0170461Y0148986D01*
X0170392Y0148955D01*
X0170321Y0148926D01*
X0170249Y0148902D01*
X0170176Y0148881D01*
X0170102Y0148864D01*
X0170027Y0148850D01*
X0169952Y0148841D01*
X0169876Y0148835D01*
X0169800Y0148833D01*
X0153800Y0148833D01*
X0153724Y0148835D01*
X0153648Y0148841D01*
X0153573Y0148850D01*
X0153498Y0148864D01*
X0153424Y0148881D01*
X0153351Y0148902D01*
X0153279Y0148926D01*
X0153208Y0148955D01*
X0153139Y0148986D01*
X0153072Y0149021D01*
X0153007Y0149060D01*
X0152943Y0149102D01*
X0152882Y0149147D01*
X0152823Y0149195D01*
X0152767Y0149246D01*
X0152713Y0149300D01*
X0152662Y0149356D01*
X0152614Y0149415D01*
X0152569Y0149476D01*
X0152527Y0149540D01*
X0152488Y0149605D01*
X0152453Y0149672D01*
X0152422Y0149741D01*
X0152393Y0149812D01*
X0152369Y0149884D01*
X0152348Y0149957D01*
X0152331Y0150031D01*
X0152317Y0150106D01*
X0152308Y0150181D01*
X0152302Y0150257D01*
X0152300Y0150333D01*
X0145800Y0158833D02*
X0137800Y0158833D01*
X0137740Y0158835D01*
X0137679Y0158840D01*
X0137620Y0158849D01*
X0137561Y0158862D01*
X0137502Y0158878D01*
X0137445Y0158898D01*
X0137390Y0158921D01*
X0137335Y0158948D01*
X0137283Y0158977D01*
X0137232Y0159010D01*
X0137183Y0159046D01*
X0137137Y0159084D01*
X0137093Y0159126D01*
X0137051Y0159170D01*
X0137013Y0159216D01*
X0136977Y0159265D01*
X0136944Y0159316D01*
X0136915Y0159368D01*
X0136888Y0159423D01*
X0136865Y0159478D01*
X0136845Y0159535D01*
X0136829Y0159594D01*
X0136816Y0159653D01*
X0136807Y0159712D01*
X0136802Y0159773D01*
X0136800Y0159833D01*
X0136800Y0176833D01*
X0136802Y0176893D01*
X0136807Y0176954D01*
X0136816Y0177013D01*
X0136829Y0177072D01*
X0136845Y0177131D01*
X0136865Y0177188D01*
X0136888Y0177243D01*
X0136915Y0177298D01*
X0136944Y0177350D01*
X0136977Y0177401D01*
X0137013Y0177450D01*
X0137051Y0177496D01*
X0137093Y0177540D01*
X0137137Y0177582D01*
X0137183Y0177620D01*
X0137232Y0177656D01*
X0137283Y0177689D01*
X0137335Y0177718D01*
X0137390Y0177745D01*
X0137445Y0177768D01*
X0137502Y0177788D01*
X0137561Y0177804D01*
X0137620Y0177817D01*
X0137679Y0177826D01*
X0137740Y0177831D01*
X0137800Y0177833D01*
X0145800Y0177833D01*
X0145860Y0177831D01*
X0145921Y0177826D01*
X0145980Y0177817D01*
X0146039Y0177804D01*
X0146098Y0177788D01*
X0146155Y0177768D01*
X0146210Y0177745D01*
X0146265Y0177718D01*
X0146317Y0177689D01*
X0146368Y0177656D01*
X0146417Y0177620D01*
X0146463Y0177582D01*
X0146507Y0177540D01*
X0146549Y0177496D01*
X0146587Y0177450D01*
X0146623Y0177401D01*
X0146656Y0177350D01*
X0146685Y0177298D01*
X0146712Y0177243D01*
X0146735Y0177188D01*
X0146755Y0177131D01*
X0146771Y0177072D01*
X0146784Y0177013D01*
X0146793Y0176954D01*
X0146798Y0176893D01*
X0146800Y0176833D01*
X0146800Y0159833D01*
X0146798Y0159773D01*
X0146793Y0159712D01*
X0146784Y0159653D01*
X0146771Y0159594D01*
X0146755Y0159535D01*
X0146735Y0159478D01*
X0146712Y0159423D01*
X0146685Y0159368D01*
X0146656Y0159316D01*
X0146623Y0159265D01*
X0146587Y0159216D01*
X0146549Y0159170D01*
X0146507Y0159126D01*
X0146463Y0159084D01*
X0146417Y0159046D01*
X0146368Y0159010D01*
X0146317Y0158977D01*
X0146265Y0158948D01*
X0146210Y0158921D01*
X0146155Y0158898D01*
X0146098Y0158878D01*
X0146039Y0158862D01*
X0145980Y0158849D01*
X0145921Y0158840D01*
X0145860Y0158835D01*
X0145800Y0158833D01*
X0141800Y0166833D02*
X0141800Y0167333D01*
X0141800Y0169333D02*
X0141800Y0169833D01*
X0157000Y0165833D02*
X0157000Y0163833D01*
X0166600Y0163833D01*
X0166600Y0165833D01*
X0161800Y0165833D01*
X0157000Y0165833D01*
X0161800Y0165833D02*
X0161800Y0169333D01*
X0165900Y0170333D02*
X0168400Y0170333D01*
X0167200Y0169033D02*
X0167200Y0171633D01*
X0161800Y0160833D02*
X0161800Y0157333D01*
X0182800Y0155833D02*
X0182800Y0154333D01*
X0182802Y0154273D01*
X0182807Y0154212D01*
X0182816Y0154153D01*
X0182829Y0154094D01*
X0182845Y0154035D01*
X0182865Y0153978D01*
X0182888Y0153923D01*
X0182915Y0153868D01*
X0182944Y0153816D01*
X0182977Y0153765D01*
X0183013Y0153716D01*
X0183051Y0153670D01*
X0183093Y0153626D01*
X0183137Y0153584D01*
X0183183Y0153546D01*
X0183232Y0153510D01*
X0183283Y0153477D01*
X0183335Y0153448D01*
X0183390Y0153421D01*
X0183445Y0153398D01*
X0183502Y0153378D01*
X0183561Y0153362D01*
X0183620Y0153349D01*
X0183679Y0153340D01*
X0183740Y0153335D01*
X0183800Y0153333D01*
X0189800Y0153333D01*
X0189860Y0153335D01*
X0189921Y0153340D01*
X0189980Y0153349D01*
X0190039Y0153362D01*
X0190098Y0153378D01*
X0190155Y0153398D01*
X0190210Y0153421D01*
X0190265Y0153448D01*
X0190317Y0153477D01*
X0190368Y0153510D01*
X0190417Y0153546D01*
X0190463Y0153584D01*
X0190507Y0153626D01*
X0190549Y0153670D01*
X0190587Y0153716D01*
X0190623Y0153765D01*
X0190656Y0153816D01*
X0190685Y0153868D01*
X0190712Y0153923D01*
X0190735Y0153978D01*
X0190755Y0154035D01*
X0190771Y0154094D01*
X0190784Y0154153D01*
X0190793Y0154212D01*
X0190798Y0154273D01*
X0190800Y0154333D01*
X0190800Y0155833D01*
X0190300Y0156333D01*
X0190300Y0170333D01*
X0190800Y0170833D01*
X0190800Y0172333D01*
X0190798Y0172393D01*
X0190793Y0172454D01*
X0190784Y0172513D01*
X0190771Y0172572D01*
X0190755Y0172631D01*
X0190735Y0172688D01*
X0190712Y0172743D01*
X0190685Y0172798D01*
X0190656Y0172850D01*
X0190623Y0172901D01*
X0190587Y0172950D01*
X0190549Y0172996D01*
X0190507Y0173040D01*
X0190463Y0173082D01*
X0190417Y0173120D01*
X0190368Y0173156D01*
X0190317Y0173189D01*
X0190265Y0173218D01*
X0190210Y0173245D01*
X0190155Y0173268D01*
X0190098Y0173288D01*
X0190039Y0173304D01*
X0189980Y0173317D01*
X0189921Y0173326D01*
X0189860Y0173331D01*
X0189800Y0173333D01*
X0183800Y0173333D01*
X0183740Y0173331D01*
X0183679Y0173326D01*
X0183620Y0173317D01*
X0183561Y0173304D01*
X0183502Y0173288D01*
X0183445Y0173268D01*
X0183390Y0173245D01*
X0183335Y0173218D01*
X0183283Y0173189D01*
X0183232Y0173156D01*
X0183183Y0173120D01*
X0183137Y0173082D01*
X0183093Y0173040D01*
X0183051Y0172996D01*
X0183013Y0172950D01*
X0182977Y0172901D01*
X0182944Y0172850D01*
X0182915Y0172798D01*
X0182888Y0172743D01*
X0182865Y0172688D01*
X0182845Y0172631D01*
X0182829Y0172572D01*
X0182816Y0172513D01*
X0182807Y0172454D01*
X0182802Y0172393D01*
X0182800Y0172333D01*
X0182800Y0170833D01*
X0183300Y0170333D01*
X0183300Y0156333D01*
X0182800Y0155833D01*
X0167000Y0191933D02*
X0167092Y0192052D01*
X0167186Y0192169D01*
X0167284Y0192283D01*
X0167384Y0192395D01*
X0167488Y0192505D01*
X0167593Y0192611D01*
X0167702Y0192716D01*
X0167813Y0192817D01*
X0167927Y0192915D01*
X0168043Y0193011D01*
X0168161Y0193104D01*
X0168282Y0193193D01*
X0168405Y0193280D01*
X0168530Y0193363D01*
X0168657Y0193444D01*
X0168786Y0193521D01*
X0168917Y0193595D01*
X0169050Y0193666D01*
X0169184Y0193733D01*
X0169320Y0193797D01*
X0169458Y0193857D01*
X0169597Y0193914D01*
X0169738Y0193967D01*
X0169880Y0194017D01*
X0170023Y0194064D01*
X0170167Y0194106D01*
X0170312Y0194146D01*
X0170458Y0194181D01*
X0170605Y0194213D01*
X0170753Y0194241D01*
X0170901Y0194265D01*
X0171050Y0194286D01*
X0171200Y0194303D01*
X0171349Y0194316D01*
X0171499Y0194325D01*
X0171650Y0194331D01*
X0171800Y0194333D01*
X0167064Y0184650D02*
X0167158Y0184531D01*
X0167256Y0184415D01*
X0167356Y0184301D01*
X0167460Y0184190D01*
X0167566Y0184082D01*
X0167674Y0183976D01*
X0167786Y0183874D01*
X0167900Y0183774D01*
X0168016Y0183676D01*
X0168135Y0183582D01*
X0168256Y0183491D01*
X0168380Y0183403D01*
X0168506Y0183318D01*
X0168633Y0183237D01*
X0168763Y0183158D01*
X0168895Y0183083D01*
X0169028Y0183012D01*
X0169164Y0182943D01*
X0169301Y0182878D01*
X0169439Y0182817D01*
X0169580Y0182759D01*
X0169721Y0182705D01*
X0169864Y0182654D01*
X0170008Y0182607D01*
X0170153Y0182563D01*
X0170300Y0182524D01*
X0170447Y0182488D01*
X0170595Y0182455D01*
X0170744Y0182427D01*
X0170894Y0182402D01*
X0171044Y0182381D01*
X0171194Y0182364D01*
X0171346Y0182350D01*
X0171497Y0182341D01*
X0171648Y0182335D01*
X0171800Y0182333D01*
X0176682Y0191820D02*
X0176591Y0191945D01*
X0176497Y0192067D01*
X0176399Y0192186D01*
X0176299Y0192303D01*
X0176195Y0192417D01*
X0176089Y0192529D01*
X0175980Y0192637D01*
X0175868Y0192743D01*
X0175753Y0192846D01*
X0175636Y0192946D01*
X0175516Y0193044D01*
X0175394Y0193137D01*
X0175270Y0193228D01*
X0175143Y0193316D01*
X0175014Y0193400D01*
X0174882Y0193481D01*
X0174749Y0193558D01*
X0174614Y0193632D01*
X0174477Y0193703D01*
X0174338Y0193770D01*
X0174198Y0193833D01*
X0174055Y0193893D01*
X0173912Y0193949D01*
X0173767Y0194001D01*
X0173621Y0194050D01*
X0173473Y0194095D01*
X0173325Y0194136D01*
X0173175Y0194173D01*
X0173025Y0194207D01*
X0172873Y0194236D01*
X0172721Y0194262D01*
X0172569Y0194284D01*
X0172416Y0194301D01*
X0172262Y0194315D01*
X0172108Y0194325D01*
X0171954Y0194331D01*
X0171800Y0194333D01*
X0176536Y0184650D02*
X0176442Y0184531D01*
X0176344Y0184415D01*
X0176244Y0184301D01*
X0176140Y0184190D01*
X0176034Y0184082D01*
X0175926Y0183976D01*
X0175814Y0183874D01*
X0175700Y0183774D01*
X0175584Y0183676D01*
X0175465Y0183582D01*
X0175344Y0183491D01*
X0175220Y0183403D01*
X0175094Y0183318D01*
X0174967Y0183237D01*
X0174837Y0183158D01*
X0174705Y0183083D01*
X0174572Y0183012D01*
X0174436Y0182943D01*
X0174299Y0182878D01*
X0174161Y0182817D01*
X0174020Y0182759D01*
X0173879Y0182705D01*
X0173736Y0182654D01*
X0173592Y0182607D01*
X0173447Y0182563D01*
X0173300Y0182524D01*
X0173153Y0182488D01*
X0173005Y0182455D01*
X0172856Y0182427D01*
X0172706Y0182402D01*
X0172556Y0182381D01*
X0172406Y0182364D01*
X0172254Y0182350D01*
X0172103Y0182341D01*
X0171952Y0182335D01*
X0171800Y0182333D01*
X0106800Y0186833D02*
X0106800Y0169833D01*
X0106798Y0169773D01*
X0106793Y0169712D01*
X0106784Y0169653D01*
X0106771Y0169594D01*
X0106755Y0169535D01*
X0106735Y0169478D01*
X0106712Y0169423D01*
X0106685Y0169368D01*
X0106656Y0169316D01*
X0106623Y0169265D01*
X0106587Y0169216D01*
X0106549Y0169170D01*
X0106507Y0169126D01*
X0106463Y0169084D01*
X0106417Y0169046D01*
X0106368Y0169010D01*
X0106317Y0168977D01*
X0106265Y0168948D01*
X0106210Y0168921D01*
X0106155Y0168898D01*
X0106098Y0168878D01*
X0106039Y0168862D01*
X0105980Y0168849D01*
X0105921Y0168840D01*
X0105860Y0168835D01*
X0105800Y0168833D01*
X0097800Y0168833D01*
X0097740Y0168835D01*
X0097679Y0168840D01*
X0097620Y0168849D01*
X0097561Y0168862D01*
X0097502Y0168878D01*
X0097445Y0168898D01*
X0097390Y0168921D01*
X0097335Y0168948D01*
X0097283Y0168977D01*
X0097232Y0169010D01*
X0097183Y0169046D01*
X0097137Y0169084D01*
X0097093Y0169126D01*
X0097051Y0169170D01*
X0097013Y0169216D01*
X0096977Y0169265D01*
X0096944Y0169316D01*
X0096915Y0169368D01*
X0096888Y0169423D01*
X0096865Y0169478D01*
X0096845Y0169535D01*
X0096829Y0169594D01*
X0096816Y0169653D01*
X0096807Y0169712D01*
X0096802Y0169773D01*
X0096800Y0169833D01*
X0096800Y0186833D01*
X0096802Y0186893D01*
X0096807Y0186954D01*
X0096816Y0187013D01*
X0096829Y0187072D01*
X0096845Y0187131D01*
X0096865Y0187188D01*
X0096888Y0187243D01*
X0096915Y0187298D01*
X0096944Y0187350D01*
X0096977Y0187401D01*
X0097013Y0187450D01*
X0097051Y0187496D01*
X0097093Y0187540D01*
X0097137Y0187582D01*
X0097183Y0187620D01*
X0097232Y0187656D01*
X0097283Y0187689D01*
X0097335Y0187718D01*
X0097390Y0187745D01*
X0097445Y0187768D01*
X0097502Y0187788D01*
X0097561Y0187804D01*
X0097620Y0187817D01*
X0097679Y0187826D01*
X0097740Y0187831D01*
X0097800Y0187833D01*
X0105800Y0187833D01*
X0105860Y0187831D01*
X0105921Y0187826D01*
X0105980Y0187817D01*
X0106039Y0187804D01*
X0106098Y0187788D01*
X0106155Y0187768D01*
X0106210Y0187745D01*
X0106265Y0187718D01*
X0106317Y0187689D01*
X0106368Y0187656D01*
X0106417Y0187620D01*
X0106463Y0187582D01*
X0106507Y0187540D01*
X0106549Y0187496D01*
X0106587Y0187450D01*
X0106623Y0187401D01*
X0106656Y0187350D01*
X0106685Y0187298D01*
X0106712Y0187243D01*
X0106735Y0187188D01*
X0106755Y0187131D01*
X0106771Y0187072D01*
X0106784Y0187013D01*
X0106793Y0186954D01*
X0106798Y0186893D01*
X0106800Y0186833D01*
X0101800Y0179833D02*
X0101800Y0179333D01*
X0101800Y0177333D02*
X0101800Y0176833D01*
X0080800Y0172333D02*
X0080800Y0170833D01*
X0080300Y0170333D01*
X0080300Y0156333D01*
X0080800Y0155833D01*
X0080800Y0154333D01*
X0080798Y0154273D01*
X0080793Y0154212D01*
X0080784Y0154153D01*
X0080771Y0154094D01*
X0080755Y0154035D01*
X0080735Y0153978D01*
X0080712Y0153923D01*
X0080685Y0153868D01*
X0080656Y0153816D01*
X0080623Y0153765D01*
X0080587Y0153716D01*
X0080549Y0153670D01*
X0080507Y0153626D01*
X0080463Y0153584D01*
X0080417Y0153546D01*
X0080368Y0153510D01*
X0080317Y0153477D01*
X0080265Y0153448D01*
X0080210Y0153421D01*
X0080155Y0153398D01*
X0080098Y0153378D01*
X0080039Y0153362D01*
X0079980Y0153349D01*
X0079921Y0153340D01*
X0079860Y0153335D01*
X0079800Y0153333D01*
X0073800Y0153333D01*
X0073740Y0153335D01*
X0073679Y0153340D01*
X0073620Y0153349D01*
X0073561Y0153362D01*
X0073502Y0153378D01*
X0073445Y0153398D01*
X0073390Y0153421D01*
X0073335Y0153448D01*
X0073283Y0153477D01*
X0073232Y0153510D01*
X0073183Y0153546D01*
X0073137Y0153584D01*
X0073093Y0153626D01*
X0073051Y0153670D01*
X0073013Y0153716D01*
X0072977Y0153765D01*
X0072944Y0153816D01*
X0072915Y0153868D01*
X0072888Y0153923D01*
X0072865Y0153978D01*
X0072845Y0154035D01*
X0072829Y0154094D01*
X0072816Y0154153D01*
X0072807Y0154212D01*
X0072802Y0154273D01*
X0072800Y0154333D01*
X0072800Y0155833D01*
X0073300Y0156333D01*
X0073300Y0170333D01*
X0072800Y0170833D01*
X0072800Y0172333D01*
X0072802Y0172393D01*
X0072807Y0172454D01*
X0072816Y0172513D01*
X0072829Y0172572D01*
X0072845Y0172631D01*
X0072865Y0172688D01*
X0072888Y0172743D01*
X0072915Y0172798D01*
X0072944Y0172850D01*
X0072977Y0172901D01*
X0073013Y0172950D01*
X0073051Y0172996D01*
X0073093Y0173040D01*
X0073137Y0173082D01*
X0073183Y0173120D01*
X0073232Y0173156D01*
X0073283Y0173189D01*
X0073335Y0173218D01*
X0073390Y0173245D01*
X0073445Y0173268D01*
X0073502Y0173288D01*
X0073561Y0173304D01*
X0073620Y0173317D01*
X0073679Y0173326D01*
X0073740Y0173331D01*
X0073800Y0173333D01*
X0079800Y0173333D01*
X0079860Y0173331D01*
X0079921Y0173326D01*
X0079980Y0173317D01*
X0080039Y0173304D01*
X0080098Y0173288D01*
X0080155Y0173268D01*
X0080210Y0173245D01*
X0080265Y0173218D01*
X0080317Y0173189D01*
X0080368Y0173156D01*
X0080417Y0173120D01*
X0080463Y0173082D01*
X0080507Y0173040D01*
X0080549Y0172996D01*
X0080587Y0172950D01*
X0080623Y0172901D01*
X0080656Y0172850D01*
X0080685Y0172798D01*
X0080712Y0172743D01*
X0080735Y0172688D01*
X0080755Y0172631D01*
X0080771Y0172572D01*
X0080784Y0172513D01*
X0080793Y0172454D01*
X0080798Y0172393D01*
X0080800Y0172333D01*
D12*
X0098800Y0177333D02*
X0101800Y0177333D01*
X0104800Y0177333D01*
X0104800Y0179333D02*
X0101800Y0179333D01*
X0098800Y0179333D01*
X0138800Y0169333D02*
X0141800Y0169333D01*
X0144800Y0169333D01*
X0144800Y0167333D02*
X0141800Y0167333D01*
X0138800Y0167333D01*
X0140800Y0141333D02*
X0140800Y0138333D01*
X0140800Y0135333D01*
X0142800Y0135333D02*
X0142800Y0138333D01*
X0142800Y0141333D01*
X0164854Y0184364D02*
X0164953Y0184195D01*
X0165057Y0184029D01*
X0165164Y0183865D01*
X0165275Y0183704D01*
X0165390Y0183546D01*
X0165509Y0183391D01*
X0165632Y0183238D01*
X0165758Y0183089D01*
X0165888Y0182943D01*
X0166022Y0182800D01*
X0166159Y0182660D01*
X0166299Y0182524D01*
X0166443Y0182391D01*
X0166590Y0182262D01*
X0166740Y0182136D01*
X0166893Y0182015D01*
X0167049Y0181896D01*
X0167208Y0181782D01*
X0167369Y0181672D01*
X0167534Y0181566D01*
X0167700Y0181463D01*
X0167870Y0181365D01*
X0168041Y0181271D01*
X0168215Y0181181D01*
X0168391Y0181096D01*
X0168569Y0181014D01*
X0168749Y0180938D01*
X0168931Y0180865D01*
X0169114Y0180797D01*
X0169299Y0180734D01*
X0169486Y0180675D01*
X0169674Y0180621D01*
X0169863Y0180571D01*
X0170053Y0180526D01*
X0170245Y0180486D01*
X0170437Y0180450D01*
X0170630Y0180419D01*
X0170824Y0180393D01*
X0171019Y0180371D01*
X0171214Y0180355D01*
X0171409Y0180343D01*
X0171605Y0180335D01*
X0171800Y0180333D01*
X0164741Y0192098D02*
X0164834Y0192266D01*
X0164930Y0192432D01*
X0165030Y0192596D01*
X0165135Y0192757D01*
X0165243Y0192916D01*
X0165355Y0193072D01*
X0165471Y0193226D01*
X0165590Y0193376D01*
X0165713Y0193524D01*
X0165839Y0193669D01*
X0165969Y0193810D01*
X0166102Y0193949D01*
X0166239Y0194084D01*
X0166379Y0194216D01*
X0166521Y0194344D01*
X0166667Y0194469D01*
X0166816Y0194591D01*
X0166968Y0194709D01*
X0167122Y0194823D01*
X0167280Y0194933D01*
X0167439Y0195040D01*
X0167602Y0195143D01*
X0167767Y0195242D01*
X0167934Y0195337D01*
X0168103Y0195427D01*
X0168274Y0195514D01*
X0168448Y0195597D01*
X0168623Y0195675D01*
X0168801Y0195749D01*
X0168980Y0195819D01*
X0169160Y0195885D01*
X0169342Y0195946D01*
X0169526Y0196003D01*
X0169711Y0196055D01*
X0169897Y0196103D01*
X0170084Y0196147D01*
X0170272Y0196186D01*
X0170461Y0196220D01*
X0170651Y0196250D01*
X0170841Y0196275D01*
X0171032Y0196296D01*
X0171224Y0196312D01*
X0171416Y0196324D01*
X0171608Y0196331D01*
X0171800Y0196333D01*
X0177907Y0183165D02*
X0177780Y0183019D01*
X0177651Y0182877D01*
X0177517Y0182737D01*
X0177381Y0182601D01*
X0177241Y0182468D01*
X0177098Y0182338D01*
X0176951Y0182212D01*
X0176802Y0182090D01*
X0176650Y0181971D01*
X0176495Y0181856D01*
X0176338Y0181744D01*
X0176178Y0181637D01*
X0176015Y0181533D01*
X0175849Y0181434D01*
X0175682Y0181338D01*
X0175512Y0181246D01*
X0175340Y0181159D01*
X0175166Y0181075D01*
X0174990Y0180996D01*
X0174812Y0180922D01*
X0174632Y0180851D01*
X0174451Y0180785D01*
X0174268Y0180723D01*
X0174084Y0180666D01*
X0173898Y0180613D01*
X0173711Y0180565D01*
X0173523Y0180521D01*
X0173334Y0180482D01*
X0173144Y0180447D01*
X0172954Y0180417D01*
X0172763Y0180391D01*
X0172571Y0180370D01*
X0172378Y0180354D01*
X0172186Y0180342D01*
X0171993Y0180335D01*
X0171800Y0180333D01*
X0177946Y0193455D02*
X0177819Y0193603D01*
X0177689Y0193748D01*
X0177556Y0193889D01*
X0177419Y0194028D01*
X0177279Y0194163D01*
X0177135Y0194294D01*
X0176988Y0194422D01*
X0176839Y0194547D01*
X0176686Y0194668D01*
X0176531Y0194785D01*
X0176372Y0194898D01*
X0176211Y0195007D01*
X0176047Y0195112D01*
X0175881Y0195214D01*
X0175712Y0195311D01*
X0175542Y0195404D01*
X0175368Y0195493D01*
X0175193Y0195578D01*
X0175016Y0195658D01*
X0174837Y0195734D01*
X0174656Y0195806D01*
X0174473Y0195873D01*
X0174289Y0195936D01*
X0174103Y0195994D01*
X0173916Y0196048D01*
X0173728Y0196097D01*
X0173538Y0196142D01*
X0173348Y0196182D01*
X0173156Y0196217D01*
X0172964Y0196248D01*
X0172771Y0196274D01*
X0172577Y0196295D01*
X0172383Y0196312D01*
X0172189Y0196324D01*
X0171995Y0196331D01*
X0171800Y0196333D01*
X0073746Y0037302D02*
X0073647Y0037471D01*
X0073543Y0037637D01*
X0073436Y0037801D01*
X0073325Y0037962D01*
X0073210Y0038120D01*
X0073091Y0038275D01*
X0072968Y0038428D01*
X0072842Y0038577D01*
X0072712Y0038723D01*
X0072578Y0038866D01*
X0072441Y0039006D01*
X0072301Y0039142D01*
X0072157Y0039275D01*
X0072010Y0039404D01*
X0071860Y0039530D01*
X0071707Y0039651D01*
X0071551Y0039770D01*
X0071392Y0039884D01*
X0071231Y0039994D01*
X0071066Y0040100D01*
X0070900Y0040203D01*
X0070730Y0040301D01*
X0070559Y0040395D01*
X0070385Y0040485D01*
X0070209Y0040570D01*
X0070031Y0040652D01*
X0069851Y0040728D01*
X0069669Y0040801D01*
X0069486Y0040869D01*
X0069301Y0040932D01*
X0069114Y0040991D01*
X0068926Y0041045D01*
X0068737Y0041095D01*
X0068547Y0041140D01*
X0068355Y0041180D01*
X0068163Y0041216D01*
X0067970Y0041247D01*
X0067776Y0041273D01*
X0067581Y0041295D01*
X0067386Y0041311D01*
X0067191Y0041323D01*
X0066995Y0041331D01*
X0066800Y0041333D01*
X0073859Y0029568D02*
X0073766Y0029400D01*
X0073670Y0029234D01*
X0073570Y0029070D01*
X0073465Y0028909D01*
X0073357Y0028750D01*
X0073245Y0028594D01*
X0073129Y0028440D01*
X0073010Y0028290D01*
X0072887Y0028142D01*
X0072761Y0027997D01*
X0072631Y0027856D01*
X0072498Y0027717D01*
X0072361Y0027582D01*
X0072221Y0027450D01*
X0072079Y0027322D01*
X0071933Y0027197D01*
X0071784Y0027075D01*
X0071632Y0026957D01*
X0071478Y0026843D01*
X0071320Y0026733D01*
X0071161Y0026626D01*
X0070998Y0026523D01*
X0070833Y0026424D01*
X0070666Y0026329D01*
X0070497Y0026239D01*
X0070326Y0026152D01*
X0070152Y0026069D01*
X0069977Y0025991D01*
X0069799Y0025917D01*
X0069620Y0025847D01*
X0069440Y0025781D01*
X0069258Y0025720D01*
X0069074Y0025663D01*
X0068889Y0025611D01*
X0068703Y0025563D01*
X0068516Y0025519D01*
X0068328Y0025480D01*
X0068139Y0025446D01*
X0067949Y0025416D01*
X0067759Y0025391D01*
X0067568Y0025370D01*
X0067376Y0025354D01*
X0067184Y0025342D01*
X0066992Y0025335D01*
X0066800Y0025333D01*
X0060693Y0038501D02*
X0060820Y0038647D01*
X0060949Y0038789D01*
X0061083Y0038929D01*
X0061219Y0039065D01*
X0061359Y0039198D01*
X0061502Y0039328D01*
X0061649Y0039454D01*
X0061798Y0039576D01*
X0061950Y0039695D01*
X0062105Y0039810D01*
X0062262Y0039922D01*
X0062422Y0040029D01*
X0062585Y0040133D01*
X0062751Y0040232D01*
X0062918Y0040328D01*
X0063088Y0040420D01*
X0063260Y0040507D01*
X0063434Y0040591D01*
X0063610Y0040670D01*
X0063788Y0040744D01*
X0063968Y0040815D01*
X0064149Y0040881D01*
X0064332Y0040943D01*
X0064516Y0041000D01*
X0064702Y0041053D01*
X0064889Y0041101D01*
X0065077Y0041145D01*
X0065266Y0041184D01*
X0065456Y0041219D01*
X0065646Y0041249D01*
X0065837Y0041275D01*
X0066029Y0041296D01*
X0066222Y0041312D01*
X0066414Y0041324D01*
X0066607Y0041331D01*
X0066800Y0041333D01*
X0060654Y0028211D02*
X0060781Y0028063D01*
X0060911Y0027918D01*
X0061044Y0027777D01*
X0061181Y0027638D01*
X0061321Y0027503D01*
X0061465Y0027372D01*
X0061612Y0027244D01*
X0061761Y0027119D01*
X0061914Y0026998D01*
X0062069Y0026881D01*
X0062228Y0026768D01*
X0062389Y0026659D01*
X0062553Y0026554D01*
X0062719Y0026452D01*
X0062888Y0026355D01*
X0063058Y0026262D01*
X0063232Y0026173D01*
X0063407Y0026088D01*
X0063584Y0026008D01*
X0063763Y0025932D01*
X0063944Y0025860D01*
X0064127Y0025793D01*
X0064311Y0025730D01*
X0064497Y0025672D01*
X0064684Y0025618D01*
X0064872Y0025569D01*
X0065062Y0025524D01*
X0065252Y0025484D01*
X0065444Y0025449D01*
X0065636Y0025418D01*
X0065829Y0025392D01*
X0066023Y0025371D01*
X0066217Y0025354D01*
X0066411Y0025342D01*
X0066605Y0025335D01*
X0066800Y0025333D01*
D13*
X0141800Y0080333D03*
X0161800Y0161333D03*
D14*
X0179550Y0190083D02*
X0179550Y0194587D01*
X0181802Y0194587D01*
X0182553Y0193837D01*
X0182553Y0192335D01*
X0181802Y0191585D01*
X0179550Y0191585D01*
X0181051Y0191585D02*
X0182553Y0190083D01*
X0184154Y0190083D02*
X0187156Y0190083D01*
X0188758Y0190083D02*
X0191010Y0190083D01*
X0191760Y0190834D01*
X0191760Y0193837D01*
X0191010Y0194587D01*
X0188758Y0194587D01*
X0188758Y0190083D01*
X0185655Y0192335D02*
X0184154Y0192335D01*
X0184154Y0194587D02*
X0184154Y0190083D01*
X0184154Y0194587D02*
X0187156Y0194587D01*
X0132252Y0189333D02*
X0130673Y0189333D01*
X0130046Y0194833D02*
X0113554Y0194833D01*
X0112927Y0189333D02*
X0111348Y0189333D01*
X0107949Y0188583D02*
X0104946Y0188583D01*
X0107949Y0191586D01*
X0107949Y0192337D01*
X0107198Y0193087D01*
X0105697Y0193087D01*
X0104946Y0192337D01*
X0103345Y0192337D02*
X0103345Y0189334D01*
X0102594Y0188583D01*
X0101093Y0188583D01*
X0100342Y0189334D01*
X0103345Y0192337D01*
X0102594Y0193087D01*
X0101093Y0193087D01*
X0100342Y0192337D01*
X0100342Y0189334D01*
X0098741Y0192337D02*
X0095738Y0189334D01*
X0095738Y0188583D01*
X0094137Y0188583D02*
X0091134Y0188583D01*
X0092636Y0188583D02*
X0092636Y0193087D01*
X0091134Y0191586D01*
X0089533Y0192337D02*
X0089533Y0190835D01*
X0088782Y0190085D01*
X0086530Y0190085D01*
X0086530Y0188583D02*
X0086530Y0193087D01*
X0088782Y0193087D01*
X0089533Y0192337D01*
X0084929Y0192337D02*
X0084178Y0193087D01*
X0082677Y0193087D01*
X0081926Y0192337D01*
X0081926Y0189334D01*
X0082677Y0188583D01*
X0084178Y0188583D01*
X0084929Y0189334D01*
X0080325Y0188583D02*
X0080325Y0193087D01*
X0078824Y0191586D01*
X0077322Y0193087D01*
X0077322Y0188583D01*
X0095738Y0193087D02*
X0098741Y0193087D01*
X0098741Y0192337D01*
X0104946Y0180333D02*
X0107949Y0180333D01*
X0120673Y0189333D02*
X0122927Y0189333D01*
X0130046Y0194834D02*
X0130199Y0194635D01*
X0130347Y0194433D01*
X0130490Y0194228D01*
X0130628Y0194019D01*
X0130761Y0193807D01*
X0130889Y0193592D01*
X0131011Y0193374D01*
X0131129Y0193153D01*
X0131241Y0192929D01*
X0131348Y0192703D01*
X0131449Y0192474D01*
X0131545Y0192243D01*
X0131636Y0192009D01*
X0131721Y0191774D01*
X0131800Y0191536D01*
X0131873Y0191297D01*
X0131941Y0191056D01*
X0132003Y0190814D01*
X0132059Y0190570D01*
X0132110Y0190324D01*
X0132154Y0190078D01*
X0132193Y0189831D01*
X0132225Y0189583D01*
X0132252Y0189334D01*
X0118704Y0178300D02*
X0118462Y0178378D01*
X0118222Y0178462D01*
X0117984Y0178551D01*
X0117748Y0178647D01*
X0117514Y0178748D01*
X0117283Y0178854D01*
X0117055Y0178967D01*
X0116829Y0179084D01*
X0116606Y0179207D01*
X0116387Y0179336D01*
X0116170Y0179470D01*
X0115957Y0179609D01*
X0115747Y0179753D01*
X0115541Y0179902D01*
X0115339Y0180056D01*
X0115140Y0180215D01*
X0114945Y0180379D01*
X0114754Y0180548D01*
X0114568Y0180721D01*
X0114385Y0180898D01*
X0114207Y0181080D01*
X0114034Y0181266D01*
X0113865Y0181457D01*
X0113701Y0181651D01*
X0113541Y0181849D01*
X0113386Y0182051D01*
X0113237Y0182257D01*
X0113092Y0182466D01*
X0112952Y0182679D01*
X0112818Y0182895D01*
X0112689Y0183115D01*
X0112565Y0183337D01*
X0112446Y0183562D01*
X0112334Y0183790D01*
X0112226Y0184021D01*
X0112125Y0184254D01*
X0112029Y0184490D01*
X0111938Y0184728D01*
X0111854Y0184968D01*
X0111775Y0185210D01*
X0111702Y0185454D01*
X0111636Y0185700D01*
X0111575Y0185947D01*
X0111520Y0186195D01*
X0111471Y0186445D01*
X0111428Y0186696D01*
X0111392Y0186948D01*
X0111361Y0187200D01*
X0111337Y0187454D01*
X0111319Y0187707D01*
X0111307Y0187962D01*
X0111301Y0188216D01*
X0111301Y0188471D01*
X0111307Y0188725D01*
X0111320Y0188979D01*
X0111339Y0189233D01*
X0111364Y0189486D01*
X0111395Y0189739D01*
X0111432Y0189991D01*
X0111475Y0190241D01*
X0111524Y0190491D01*
X0111579Y0190740D01*
X0111641Y0190987D01*
X0111708Y0191232D01*
X0111781Y0191476D01*
X0111860Y0191718D01*
X0111945Y0191957D01*
X0112036Y0192195D01*
X0112133Y0192431D01*
X0112235Y0192664D01*
X0112343Y0192894D01*
X0112456Y0193122D01*
X0112575Y0193347D01*
X0112699Y0193569D01*
X0112828Y0193788D01*
X0112963Y0194004D01*
X0113103Y0194217D01*
X0113249Y0194426D01*
X0113399Y0194631D01*
X0113554Y0194833D01*
X0132252Y0189333D02*
X0132274Y0189078D01*
X0132289Y0188822D01*
X0132297Y0188566D01*
X0132300Y0188309D01*
X0132296Y0188053D01*
X0132286Y0187797D01*
X0132270Y0187541D01*
X0132248Y0187286D01*
X0132219Y0187031D01*
X0132184Y0186777D01*
X0132143Y0186524D01*
X0132096Y0186272D01*
X0132042Y0186022D01*
X0131983Y0185773D01*
X0131917Y0185525D01*
X0131846Y0185279D01*
X0131768Y0185034D01*
X0131685Y0184792D01*
X0131596Y0184552D01*
X0131500Y0184314D01*
X0131399Y0184078D01*
X0131293Y0183845D01*
X0131180Y0183615D01*
X0131062Y0183387D01*
X0130939Y0183163D01*
X0130810Y0182941D01*
X0130676Y0182723D01*
X0130536Y0182508D01*
X0130391Y0182297D01*
X0130241Y0182089D01*
X0130087Y0181885D01*
X0129927Y0181684D01*
X0129762Y0181488D01*
X0129593Y0181296D01*
X0129418Y0181107D01*
X0129240Y0180924D01*
X0129057Y0180744D01*
X0128869Y0180569D01*
X0128678Y0180399D01*
X0128482Y0180234D01*
X0128282Y0180073D01*
X0128079Y0179917D01*
X0127872Y0179767D01*
X0127661Y0179621D01*
X0127446Y0179480D01*
X0127229Y0179345D01*
X0127008Y0179215D01*
X0126784Y0179091D01*
X0126557Y0178972D01*
X0126327Y0178859D01*
X0126094Y0178751D01*
X0125859Y0178649D01*
X0125621Y0178553D01*
X0125382Y0178463D01*
X0125140Y0178378D01*
X0124896Y0178300D01*
X0056800Y0158333D02*
X0056800Y0153333D01*
X0056800Y0158333D02*
X0051800Y0163333D01*
X0026800Y0093333D02*
X0031800Y0088333D01*
X0031800Y0083333D01*
X0062281Y0021587D02*
X0061530Y0020837D01*
X0061530Y0017834D01*
X0062281Y0017083D01*
X0063782Y0017083D01*
X0064533Y0017834D01*
X0064533Y0019335D01*
X0063032Y0019335D01*
X0064533Y0020837D02*
X0063782Y0021587D01*
X0062281Y0021587D01*
X0066134Y0021587D02*
X0066134Y0017083D01*
X0066134Y0018585D02*
X0068386Y0018585D01*
X0069137Y0019335D01*
X0069137Y0020837D01*
X0068386Y0021587D01*
X0066134Y0021587D01*
X0067636Y0018585D02*
X0069137Y0017083D01*
X0070738Y0017083D02*
X0073741Y0017083D01*
X0075342Y0017083D02*
X0078345Y0017083D01*
X0079946Y0017083D02*
X0079946Y0021587D01*
X0082949Y0017083D01*
X0082949Y0021587D01*
X0078345Y0021587D02*
X0075342Y0021587D01*
X0075342Y0017083D01*
X0075342Y0019335D02*
X0076843Y0019335D01*
X0073741Y0021587D02*
X0070738Y0021587D01*
X0070738Y0017083D01*
X0070738Y0019335D02*
X0072239Y0019335D01*
D15*
X0051800Y0072583D03*
X0051800Y0094083D03*
X0076800Y0152583D03*
X0076800Y0174083D03*
X0186800Y0174083D03*
X0186800Y0152583D03*
D16*
X0057550Y0053333D03*
X0036050Y0053333D03*
D17*
X0034300Y0073333D02*
X0029300Y0073333D01*
X0021800Y0080833D01*
X0021800Y0095833D01*
X0029300Y0103333D01*
X0034300Y0103333D01*
X0041800Y0095833D01*
X0041800Y0080833D01*
X0034300Y0073333D01*
X0054300Y0143333D02*
X0059300Y0143333D01*
X0066800Y0150833D01*
X0066800Y0165833D01*
X0059300Y0173333D01*
X0054300Y0173333D01*
X0046800Y0165833D01*
X0046800Y0150833D01*
X0054300Y0143333D01*
D18*
X0103445Y0142390D02*
X0103445Y0140289D01*
X0104496Y0139238D01*
X0108699Y0139238D01*
X0104496Y0143441D01*
X0108699Y0143441D01*
X0109750Y0142390D01*
X0109750Y0140289D01*
X0108699Y0139238D01*
X0108699Y0136996D02*
X0106597Y0136996D01*
X0105546Y0135945D01*
X0105546Y0134894D01*
X0106597Y0132792D01*
X0103445Y0132792D01*
X0103445Y0136996D01*
X0108699Y0136996D02*
X0109750Y0135945D01*
X0109750Y0133843D01*
X0108699Y0132792D01*
X0109750Y0130550D02*
X0109750Y0126347D01*
X0105546Y0130550D01*
X0104496Y0130550D01*
X0103445Y0129499D01*
X0103445Y0127398D01*
X0104496Y0126347D01*
X0103445Y0124105D02*
X0109750Y0119901D01*
X0109750Y0117659D02*
X0103445Y0117659D01*
X0105546Y0115558D01*
X0103445Y0113456D01*
X0109750Y0113456D01*
X0109750Y0111214D02*
X0109750Y0107010D01*
X0105546Y0111214D01*
X0104496Y0111214D01*
X0103445Y0110163D01*
X0103445Y0108061D01*
X0104496Y0107010D01*
X0104496Y0104768D02*
X0105546Y0104768D01*
X0106597Y0103717D01*
X0107648Y0104768D01*
X0108699Y0104768D01*
X0109750Y0103717D01*
X0109750Y0101616D01*
X0108699Y0100565D01*
X0108699Y0098323D02*
X0109750Y0097272D01*
X0109750Y0095170D01*
X0108699Y0094119D01*
X0104496Y0094119D01*
X0103445Y0095170D01*
X0103445Y0097272D01*
X0104496Y0098323D01*
X0104496Y0100565D02*
X0103445Y0101616D01*
X0103445Y0103717D01*
X0104496Y0104768D01*
X0106597Y0103717D02*
X0106597Y0102667D01*
X0103445Y0091924D02*
X0103445Y0089822D01*
X0103445Y0090873D02*
X0109750Y0090873D01*
X0109750Y0089822D02*
X0109750Y0091924D01*
X0106597Y0087580D02*
X0107648Y0086529D01*
X0107648Y0083377D01*
X0109750Y0083377D02*
X0103445Y0083377D01*
X0103445Y0086529D01*
X0104496Y0087580D01*
X0106597Y0087580D01*
X0103445Y0119901D02*
X0109750Y0124105D01*
X0103445Y0142390D02*
X0104496Y0143441D01*
M02*
