%
M48
M72
T01C0.02362
T02C0.03150
T03C0.03200
T04C0.03937
T05C0.04000
T06C0.07480
%
T01
X31800Y28333
X21800Y48333
X21800Y63333
X32100Y65529
X66800Y118333
X26800Y148333
X56800Y178333
X46800Y193333
T02
X32154Y176483
X36879Y179633
X36879Y173333
X32154Y170184
X36879Y167034
X63926Y193333
X71800Y193333
X79674Y193333
T03
X76800Y178333
X101800Y173333
X101800Y183333
X116800Y188333
X121800Y180833
X126800Y188333
X141800Y173333
X141800Y163333
X161800Y153333
X146800Y138333
X136800Y138333
X121800Y138333
X121800Y128333
X121800Y118333
X121800Y108333
X121800Y98333
X121800Y88333
X121800Y78333
X121800Y68333
X121800Y58333
X121800Y48333
X121800Y38333
X121800Y28333
X121800Y18333
X91800Y18333
X91800Y28333
X91800Y38333
X91800Y48333
X91800Y58333
X91800Y68333
X91800Y78333
X91800Y88333
X91800Y98333
X91800Y108333
X91800Y118333
X91800Y128333
X91800Y138333
X91800Y148333
X76800Y148333
X121800Y148333
X161800Y173333
X166800Y188333
X176800Y188333
X186800Y178333
X186800Y148333
X141800Y88333
X141800Y68333
X71800Y33333
X61800Y33333
X61800Y53333
X51800Y68333
X31800Y53333
X51800Y98333
T04
X56052Y193333
X87548Y193333
T05
X56800Y168333
X56800Y148333
X6800Y138333
X6800Y128333
X6800Y118333
X6800Y108333
X6800Y98333
X6800Y88333
X6800Y78333
X6800Y68333
X6800Y48333
X6800Y38333
X6800Y28333
X6800Y18333
X6800Y8333
X66800Y68333
X66800Y68333
X66800Y78333
X66800Y88333
X31800Y78333
X31800Y98333
X193800Y98333
X193800Y88333
X193800Y78333
X193800Y68333
X193800Y108333
X193800Y118333
X193800Y128333
X193800Y138333
T06
X16800Y187703
X16800Y158963
M30
