G75*
%MOIN*%
%OFA0B0*%
%FSLAX25Y25*%
%IPPOS*%
%LPD*%
%AMOC8*
5,1,8,0,0,1.08239X$1,22.5*
%
%ADD10C,0.00000*%
%ADD11C,0.00600*%
%ADD12OC8,0.05200*%
%ADD13C,0.05200*%
%ADD14C,0.05150*%
%ADD15C,0.11220*%
%ADD16C,0.00500*%
%ADD17C,0.07400*%
%ADD18C,0.05200*%
%ADD19C,0.00700*%
%ADD20C,0.05937*%
%ADD21C,0.01600*%
%ADD22C,0.03562*%
D10*
X0001800Y0003333D02*
X0001800Y0200184D01*
X0198650Y0200184D01*
X0198650Y0003333D01*
X0001800Y0003333D01*
D11*
X0017100Y0003633D02*
X0021370Y0003633D01*
X0019235Y0003633D02*
X0019235Y0010039D01*
X0017100Y0007904D01*
X0016370Y0063633D02*
X0012100Y0063633D01*
X0014235Y0063633D02*
X0014235Y0070039D01*
X0012100Y0067904D01*
X0147100Y0015039D02*
X0147100Y0008633D01*
X0149235Y0010768D01*
X0151370Y0008633D01*
X0151370Y0015039D01*
X0153545Y0015039D02*
X0153545Y0010768D01*
X0155681Y0008633D01*
X0157816Y0010768D01*
X0157816Y0015039D01*
X0159991Y0015039D02*
X0162126Y0015039D01*
X0161059Y0015039D02*
X0161059Y0008633D01*
X0162126Y0008633D02*
X0159991Y0008633D01*
X0164288Y0009701D02*
X0165356Y0008633D01*
X0167491Y0008633D01*
X0168558Y0009701D01*
X0168558Y0010768D01*
X0167491Y0011836D01*
X0165356Y0011836D01*
X0164288Y0012904D01*
X0164288Y0013971D01*
X0165356Y0015039D01*
X0167491Y0015039D01*
X0168558Y0013971D01*
X0170733Y0015039D02*
X0172869Y0012904D01*
X0175004Y0015039D01*
X0175004Y0008633D01*
X0177179Y0008633D02*
X0177179Y0012904D01*
X0179314Y0015039D01*
X0181449Y0012904D01*
X0181449Y0008633D01*
X0181449Y0011836D02*
X0177179Y0011836D01*
X0170733Y0008633D02*
X0170733Y0015039D01*
X0183624Y0015039D02*
X0183624Y0013971D01*
X0185760Y0011836D01*
X0185760Y0008633D01*
X0185760Y0011836D02*
X0187895Y0013971D01*
X0187895Y0015039D01*
X0190070Y0012904D02*
X0192205Y0015039D01*
X0194340Y0012904D01*
X0194340Y0008633D01*
X0194340Y0011836D02*
X0190070Y0011836D01*
X0190070Y0012904D02*
X0190070Y0008633D01*
X0192100Y0053633D02*
X0196370Y0053633D01*
X0194235Y0053633D02*
X0194235Y0060039D01*
X0192100Y0057904D01*
D12*
X0141800Y0088333D03*
X0136800Y0138333D03*
X0146800Y0138333D03*
X0161800Y0153333D03*
X0141800Y0163333D03*
X0141800Y0173333D03*
X0126800Y0188333D03*
X0121800Y0180833D03*
X0116800Y0188333D03*
X0101800Y0183333D03*
X0101800Y0173333D03*
X0076800Y0178333D03*
X0076800Y0148333D03*
X0051800Y0098333D03*
X0051800Y0068333D03*
X0061800Y0053333D03*
X0061800Y0033333D03*
X0071800Y0033333D03*
X0031800Y0053333D03*
X0166800Y0188333D03*
X0176800Y0188333D03*
X0186800Y0178333D03*
X0186800Y0148333D03*
D13*
X0161800Y0173333D03*
X0141800Y0068333D03*
D14*
X0036879Y0167034D03*
X0032154Y0170184D03*
X0036879Y0173333D03*
X0032154Y0176483D03*
X0036879Y0179633D03*
X0063926Y0193333D03*
X0071800Y0193333D03*
X0079674Y0193333D03*
D15*
X0016800Y0187703D03*
X0016800Y0158963D03*
D16*
X0077322Y0188583D02*
X0077322Y0193087D01*
X0078824Y0191586D01*
X0080325Y0193087D01*
X0080325Y0188583D01*
X0081926Y0189334D02*
X0082677Y0188583D01*
X0084178Y0188583D01*
X0084929Y0189334D01*
X0086530Y0190085D02*
X0088782Y0190085D01*
X0089533Y0190835D01*
X0089533Y0192337D01*
X0088782Y0193087D01*
X0086530Y0193087D01*
X0086530Y0188583D01*
X0084929Y0192337D02*
X0084178Y0193087D01*
X0082677Y0193087D01*
X0081926Y0192337D01*
X0081926Y0189334D01*
X0091134Y0188583D02*
X0094137Y0188583D01*
X0092636Y0188583D02*
X0092636Y0193087D01*
X0091134Y0191586D01*
X0095738Y0193087D02*
X0098741Y0193087D01*
X0098741Y0192337D01*
X0095738Y0189334D01*
X0095738Y0188583D01*
X0100342Y0189334D02*
X0100342Y0192337D01*
X0101093Y0193087D01*
X0102594Y0193087D01*
X0103345Y0192337D01*
X0100342Y0189334D01*
X0101093Y0188583D01*
X0102594Y0188583D01*
X0103345Y0189334D01*
X0103345Y0192337D01*
X0104946Y0192337D02*
X0105697Y0193087D01*
X0107198Y0193087D01*
X0107949Y0192337D01*
X0107949Y0191586D01*
X0104946Y0188583D01*
X0107949Y0188583D01*
X0107949Y0180333D02*
X0104946Y0180333D01*
X0179550Y0190083D02*
X0179550Y0194587D01*
X0181802Y0194587D01*
X0182553Y0193837D01*
X0182553Y0192335D01*
X0181802Y0191585D01*
X0179550Y0191585D01*
X0181051Y0191585D02*
X0182553Y0190083D01*
X0184154Y0190083D02*
X0187156Y0190083D01*
X0188758Y0190083D02*
X0191010Y0190083D01*
X0191760Y0190834D01*
X0191760Y0193837D01*
X0191010Y0194587D01*
X0188758Y0194587D01*
X0188758Y0190083D01*
X0185655Y0192335D02*
X0184154Y0192335D01*
X0184154Y0194587D02*
X0184154Y0190083D01*
X0184154Y0194587D02*
X0187156Y0194587D01*
X0082949Y0021587D02*
X0082949Y0017083D01*
X0079946Y0021587D01*
X0079946Y0017083D01*
X0078345Y0017083D02*
X0075342Y0017083D01*
X0075342Y0021587D01*
X0078345Y0021587D01*
X0076843Y0019335D02*
X0075342Y0019335D01*
X0073741Y0017083D02*
X0070738Y0017083D01*
X0070738Y0021587D01*
X0073741Y0021587D01*
X0072239Y0019335D02*
X0070738Y0019335D01*
X0069137Y0019335D02*
X0069137Y0020837D01*
X0068386Y0021587D01*
X0066134Y0021587D01*
X0066134Y0017083D01*
X0066134Y0018585D02*
X0068386Y0018585D01*
X0069137Y0019335D01*
X0067636Y0018585D02*
X0069137Y0017083D01*
X0064533Y0017834D02*
X0064533Y0019335D01*
X0063032Y0019335D01*
X0064533Y0017834D02*
X0063782Y0017083D01*
X0062281Y0017083D01*
X0061530Y0017834D01*
X0061530Y0020837D01*
X0062281Y0021587D01*
X0063782Y0021587D01*
X0064533Y0020837D01*
D17*
X0066800Y0068333D03*
X0066800Y0068333D03*
X0066800Y0078333D03*
X0066800Y0088333D03*
X0031800Y0078333D03*
X0031800Y0098333D03*
X0006800Y0098333D03*
X0006800Y0088333D03*
X0006800Y0078333D03*
X0006800Y0068333D03*
X0006800Y0048333D03*
X0006800Y0038333D03*
X0006800Y0028333D03*
X0006800Y0018333D03*
X0006800Y0008333D03*
X0006800Y0108333D03*
X0006800Y0118333D03*
X0006800Y0128333D03*
X0006800Y0138333D03*
X0056800Y0148333D03*
X0056800Y0168333D03*
X0193800Y0138333D03*
X0193800Y0128333D03*
X0193800Y0118333D03*
X0193800Y0108333D03*
X0193800Y0098333D03*
X0193800Y0088333D03*
X0193800Y0078333D03*
X0193800Y0068333D03*
D18*
X0124400Y0068333D02*
X0119200Y0068333D01*
X0119200Y0058333D02*
X0124400Y0058333D01*
X0124400Y0048333D02*
X0119200Y0048333D01*
X0119200Y0038333D02*
X0124400Y0038333D01*
X0124400Y0028333D02*
X0119200Y0028333D01*
X0119200Y0018333D02*
X0124400Y0018333D01*
X0094400Y0018333D02*
X0089200Y0018333D01*
X0089200Y0028333D02*
X0094400Y0028333D01*
X0094400Y0038333D02*
X0089200Y0038333D01*
X0089200Y0048333D02*
X0094400Y0048333D01*
X0094400Y0058333D02*
X0089200Y0058333D01*
X0089200Y0068333D02*
X0094400Y0068333D01*
X0094400Y0078333D02*
X0089200Y0078333D01*
X0089200Y0088333D02*
X0094400Y0088333D01*
X0094400Y0098333D02*
X0089200Y0098333D01*
X0089200Y0108333D02*
X0094400Y0108333D01*
X0094400Y0118333D02*
X0089200Y0118333D01*
X0089200Y0128333D02*
X0094400Y0128333D01*
X0094400Y0138333D02*
X0089200Y0138333D01*
X0089200Y0148333D02*
X0094400Y0148333D01*
X0119200Y0148333D02*
X0124400Y0148333D01*
X0124400Y0138333D02*
X0119200Y0138333D01*
X0119200Y0128333D02*
X0124400Y0128333D01*
X0124400Y0118333D02*
X0119200Y0118333D01*
X0119200Y0108333D02*
X0124400Y0108333D01*
X0124400Y0098333D02*
X0119200Y0098333D01*
X0119200Y0088333D02*
X0124400Y0088333D01*
X0124400Y0078333D02*
X0119200Y0078333D01*
D19*
X0109750Y0083377D02*
X0103445Y0083377D01*
X0103445Y0086529D01*
X0104496Y0087580D01*
X0106597Y0087580D01*
X0107648Y0086529D01*
X0107648Y0083377D01*
X0109750Y0089822D02*
X0109750Y0091924D01*
X0109750Y0090873D02*
X0103445Y0090873D01*
X0103445Y0089822D02*
X0103445Y0091924D01*
X0104496Y0094119D02*
X0108699Y0094119D01*
X0109750Y0095170D01*
X0109750Y0097272D01*
X0108699Y0098323D01*
X0108699Y0100565D02*
X0109750Y0101616D01*
X0109750Y0103717D01*
X0108699Y0104768D01*
X0107648Y0104768D01*
X0106597Y0103717D01*
X0106597Y0102667D01*
X0106597Y0103717D02*
X0105546Y0104768D01*
X0104496Y0104768D01*
X0103445Y0103717D01*
X0103445Y0101616D01*
X0104496Y0100565D01*
X0104496Y0098323D02*
X0103445Y0097272D01*
X0103445Y0095170D01*
X0104496Y0094119D01*
X0104496Y0107010D02*
X0103445Y0108061D01*
X0103445Y0110163D01*
X0104496Y0111214D01*
X0105546Y0111214D01*
X0109750Y0107010D01*
X0109750Y0111214D01*
X0109750Y0113456D02*
X0103445Y0113456D01*
X0105546Y0115558D01*
X0103445Y0117659D01*
X0109750Y0117659D01*
X0109750Y0119901D02*
X0103445Y0124105D01*
X0104496Y0126347D02*
X0103445Y0127398D01*
X0103445Y0129499D01*
X0104496Y0130550D01*
X0105546Y0130550D01*
X0109750Y0126347D01*
X0109750Y0130550D01*
X0108699Y0132792D02*
X0109750Y0133843D01*
X0109750Y0135945D01*
X0108699Y0136996D01*
X0106597Y0136996D01*
X0105546Y0135945D01*
X0105546Y0134894D01*
X0106597Y0132792D01*
X0103445Y0132792D01*
X0103445Y0136996D01*
X0104496Y0139238D02*
X0103445Y0140289D01*
X0103445Y0142390D01*
X0104496Y0143441D01*
X0108699Y0139238D01*
X0109750Y0140289D01*
X0109750Y0142390D01*
X0108699Y0143441D01*
X0104496Y0143441D01*
X0104496Y0139238D02*
X0108699Y0139238D01*
X0109750Y0124105D02*
X0103445Y0119901D01*
D20*
X0087548Y0193333D03*
X0056052Y0193333D03*
D21*
X0046800Y0193333D02*
X0032154Y0193333D01*
X0032154Y0176483D01*
X0036879Y0179633D02*
X0041011Y0183765D01*
X0065262Y0183765D01*
X0069830Y0193333D01*
X0071800Y0193333D01*
X0079674Y0193333D02*
X0081800Y0193333D01*
X0086800Y0183333D01*
X0101800Y0183333D01*
X0111800Y0178333D01*
X0121800Y0180833D01*
X0116800Y0188333D02*
X0116800Y0193333D01*
X0121800Y0195384D01*
X0141800Y0195384D01*
X0141800Y0173333D01*
X0131800Y0168333D01*
X0131800Y0163333D01*
X0131800Y0148333D01*
X0146800Y0138333D01*
X0131800Y0148333D02*
X0121800Y0148333D01*
X0131800Y0163333D02*
X0086800Y0163333D01*
X0086800Y0178333D01*
X0076800Y0178333D01*
X0056800Y0178333D02*
X0036879Y0173333D01*
X0032154Y0170184D02*
X0032154Y0148333D01*
X0026800Y0148333D01*
X0006800Y0138333D02*
X0091800Y0138333D01*
X0091800Y0128333D02*
X0006800Y0128333D01*
X0006800Y0118333D02*
X0056800Y0118333D01*
X0091800Y0098333D01*
X0091800Y0088333D02*
X0056800Y0108333D01*
X0006800Y0108333D01*
X0006800Y0098333D02*
X0031800Y0098333D01*
X0041800Y0088333D01*
X0041800Y0048333D01*
X0091800Y0048333D01*
X0091800Y0058333D02*
X0096800Y0058333D01*
X0091800Y0058333D02*
X0071800Y0058333D01*
X0066800Y0068333D01*
X0066800Y0088333D02*
X0091800Y0068333D01*
X0091800Y0038333D02*
X0071800Y0033333D01*
X0061800Y0013333D02*
X0046800Y0038333D01*
X0021800Y0038333D01*
X0006800Y0048333D01*
X0006800Y0038333D02*
X0027100Y0023333D01*
X0032100Y0028033D01*
X0031800Y0028333D01*
X0027100Y0023333D02*
X0027100Y0008333D01*
X0111800Y0008333D01*
X0111800Y0098333D01*
X0121800Y0098333D01*
X0121800Y0108333D02*
X0183800Y0108333D01*
X0193800Y0118333D01*
X0193800Y0108333D02*
X0158800Y0085829D01*
X0149400Y0046429D01*
X0124400Y0045933D01*
X0121800Y0048333D01*
X0121800Y0038333D02*
X0156800Y0038333D01*
X0166248Y0079554D01*
X0193800Y0098333D01*
X0193800Y0088333D02*
X0171800Y0069831D01*
X0166800Y0028333D01*
X0121800Y0028333D01*
X0121800Y0018333D02*
X0176800Y0018333D01*
X0181800Y0068333D01*
X0193800Y0078333D01*
X0183800Y0118333D02*
X0193800Y0128333D01*
X0183800Y0128333D02*
X0193800Y0138333D01*
X0183800Y0128333D02*
X0121800Y0128333D01*
X0121800Y0118333D02*
X0183800Y0118333D01*
X0141800Y0068333D02*
X0121800Y0068333D01*
X0091800Y0118333D02*
X0066800Y0118333D01*
X0051800Y0098333D02*
X0031800Y0098333D01*
X0036800Y0098333D01*
X0031800Y0078333D02*
X0021800Y0078333D01*
X0021800Y0075829D01*
X0016800Y0078333D01*
X0021800Y0078333D01*
X0021800Y0075829D02*
X0032100Y0065529D01*
X0021800Y0063333D02*
X0021800Y0048333D01*
X0016800Y0078333D02*
X0006800Y0078333D01*
X0061800Y0013333D02*
X0101800Y0013333D01*
X0101800Y0143333D01*
X0096800Y0148333D01*
X0091800Y0148333D01*
X0076800Y0148333D01*
X0056800Y0148333D01*
X0141800Y0173333D02*
X0161800Y0173333D01*
X0166800Y0188333D01*
X0176800Y0188333D02*
X0186800Y0188333D01*
X0186800Y0178333D01*
D22*
X0066800Y0118333D03*
X0026800Y0148333D03*
X0056800Y0178333D03*
X0046800Y0193333D03*
X0032100Y0065529D03*
X0021800Y0063333D03*
X0021800Y0048333D03*
X0031800Y0028333D03*
M02*
