G75*
%MOIN*%
%OFA0B0*%
%FSLAX25Y25*%
%IPPOS*%
%LPD*%
%AMOC8*
5,1,8,0,0,1.08239X$1,22.5*
%
%ADD10C,0.00000*%
%ADD11OC8,0.05600*%
%ADD12C,0.05600*%
%ADD13C,0.05550*%
%ADD14C,0.11620*%
%ADD15C,0.07800*%
%ADD16C,0.05600*%
%ADD17C,0.06337*%
D10*
X0001800Y0003333D02*
X0001800Y0200184D01*
X0198650Y0200184D01*
X0198650Y0003333D01*
X0001800Y0003333D01*
D11*
X0031800Y0053333D03*
X0051800Y0068333D03*
X0061800Y0053333D03*
X0061800Y0033333D03*
X0071800Y0033333D03*
X0051800Y0098333D03*
X0076800Y0148333D03*
X0101800Y0173333D03*
X0101800Y0183333D03*
X0116800Y0188333D03*
X0121800Y0180833D03*
X0126800Y0188333D03*
X0141800Y0173333D03*
X0141800Y0163333D03*
X0161800Y0153333D03*
X0146800Y0138333D03*
X0136800Y0138333D03*
X0141800Y0088333D03*
X0186800Y0148333D03*
X0186800Y0178333D03*
X0176800Y0188333D03*
X0166800Y0188333D03*
X0076800Y0178333D03*
D12*
X0161800Y0173333D03*
X0141800Y0068333D03*
D13*
X0036879Y0167034D03*
X0032154Y0170184D03*
X0036879Y0173333D03*
X0032154Y0176483D03*
X0036879Y0179633D03*
X0063926Y0193333D03*
X0071800Y0193333D03*
X0079674Y0193333D03*
D14*
X0016800Y0187703D03*
X0016800Y0158963D03*
D15*
X0006800Y0138333D03*
X0006800Y0128333D03*
X0006800Y0118333D03*
X0006800Y0108333D03*
X0006800Y0098333D03*
X0006800Y0088333D03*
X0006800Y0078333D03*
X0006800Y0068333D03*
X0006800Y0048333D03*
X0006800Y0038333D03*
X0006800Y0028333D03*
X0006800Y0018333D03*
X0006800Y0008333D03*
X0066800Y0068333D03*
X0066800Y0068333D03*
X0066800Y0078333D03*
X0066800Y0088333D03*
X0031800Y0078333D03*
X0031800Y0098333D03*
X0056800Y0148333D03*
X0056800Y0168333D03*
X0193800Y0138333D03*
X0193800Y0128333D03*
X0193800Y0118333D03*
X0193800Y0108333D03*
X0193800Y0098333D03*
X0193800Y0088333D03*
X0193800Y0078333D03*
X0193800Y0068333D03*
D16*
X0124400Y0068333D02*
X0119200Y0068333D01*
X0119200Y0058333D02*
X0124400Y0058333D01*
X0124400Y0048333D02*
X0119200Y0048333D01*
X0119200Y0038333D02*
X0124400Y0038333D01*
X0124400Y0028333D02*
X0119200Y0028333D01*
X0119200Y0018333D02*
X0124400Y0018333D01*
X0094400Y0018333D02*
X0089200Y0018333D01*
X0089200Y0028333D02*
X0094400Y0028333D01*
X0094400Y0038333D02*
X0089200Y0038333D01*
X0089200Y0048333D02*
X0094400Y0048333D01*
X0094400Y0058333D02*
X0089200Y0058333D01*
X0089200Y0068333D02*
X0094400Y0068333D01*
X0094400Y0078333D02*
X0089200Y0078333D01*
X0089200Y0088333D02*
X0094400Y0088333D01*
X0094400Y0098333D02*
X0089200Y0098333D01*
X0089200Y0108333D02*
X0094400Y0108333D01*
X0094400Y0118333D02*
X0089200Y0118333D01*
X0089200Y0128333D02*
X0094400Y0128333D01*
X0094400Y0138333D02*
X0089200Y0138333D01*
X0089200Y0148333D02*
X0094400Y0148333D01*
X0119200Y0148333D02*
X0124400Y0148333D01*
X0124400Y0138333D02*
X0119200Y0138333D01*
X0119200Y0128333D02*
X0124400Y0128333D01*
X0124400Y0118333D02*
X0119200Y0118333D01*
X0119200Y0108333D02*
X0124400Y0108333D01*
X0124400Y0098333D02*
X0119200Y0098333D01*
X0119200Y0088333D02*
X0124400Y0088333D01*
X0124400Y0078333D02*
X0119200Y0078333D01*
D17*
X0087548Y0193333D03*
X0056052Y0193333D03*
M02*
